<svg version="1.1" id="Layer_1" xmlns="http://www.w3.org/2000/svg" xmlns:xlink="http://www.w3.org/1999/xlink" x="0px" y="0px"
	 width="100%" viewBox="0 0 280 280" enable-background="new 0 0 280 280" xml:space="preserve">
<path fill="#212A32" opacity="1.000000" stroke="none" 
	d="
M184.000000,281.000000 
	C122.666672,281.000000 61.833347,281.000000 1.000016,281.000000 
	C1.000011,187.666687 1.000011,94.333366 1.000005,1.000041 
	C94.333305,1.000028 187.666611,1.000028 280.999939,1.000014 
	C280.999939,94.333290 280.999939,187.666580 280.999969,280.999939 
	C248.833328,281.000000 216.666672,281.000000 184.000000,281.000000 
M140.358429,125.922371 
	C124.391167,98.414551 108.423897,70.906738 92.457199,43.399895 
	C91.968391,43.640003 91.544617,43.703506 91.409828,43.935162 
	C85.070152,54.830772 78.676468,65.696960 72.546707,76.709969 
	C71.847382,77.966415 72.102150,80.348404 72.839035,81.707092 
	C76.072182,87.668480 79.692703,93.418144 83.082291,99.296753 
	C86.694572,105.561584 90.205048,111.885117 94.130539,118.839523 
	C79.604721,118.839523 65.839470,118.883408 52.075001,118.799919 
	C49.535233,118.784508 47.827778,119.184830 46.583797,121.843307 
	C44.835709,125.579079 42.343178,128.960083 40.275513,132.554092 
	C36.094097,139.822189 31.984325,147.131516 27.436623,155.143280 
	C60.327854,155.143280 92.131737,155.143280 123.773499,155.803452 
	C120.084206,162.282501 116.426193,168.779602 112.699249,175.236923 
	C104.187256,189.984787 95.623070,204.702530 87.118195,219.454483 
	C83.464233,225.792404 79.904930,232.184906 76.048141,239.002457 
	C89.519859,239.002457 102.168846,239.061218 114.815506,238.916779 
	C116.165695,238.901382 118.070038,238.058899 118.748451,236.986938 
	C121.933853,231.953735 124.756165,226.692017 127.754150,221.538651 
	C131.923737,214.371323 136.134354,207.227859 140.469803,199.831192 
	C141.227432,200.736511 141.606583,201.076523 141.848892,201.495636 
	C148.232895,212.538269 154.509750,223.644836 161.065857,234.584076 
	C162.168747,236.424332 164.433884,238.757233 166.220367,238.807999 
	C178.995529,239.171097 191.785828,239.001907 205.356781,239.001907 
	C189.094925,210.691452 173.130829,182.899368 158.080765,155.048630 
	C189.653809,155.048630 221.226852,155.048630 253.615967,155.048630 
	C252.574203,152.854294 251.986374,151.348297 251.182327,149.968262 
	C247.423599,143.516876 242.793472,137.431168 240.004822,130.590988 
	C236.144424,121.121986 230.402100,117.524635 220.042633,118.599617 
	C209.566528,119.686699 198.889694,118.839294 187.685120,118.839294 
	C188.407730,116.964439 188.715317,115.693382 189.343994,114.608376 
	C195.665710,103.697647 202.093811,92.848022 208.330673,81.889389 
	C209.096954,80.543007 209.683167,78.246735 209.057831,77.091782 
	C204.639328,68.930847 199.917816,60.932339 195.215759,52.927361 
	C193.354645,49.758911 191.296661,46.706097 189.011673,43.101051 
	C172.676910,71.385094 156.840103,98.806892 140.358429,125.922371 
z"/>
<path fill="#FEFEFE" opacity="1.000000" stroke="none" 
	d="
M157.166748,155.107285 
	C173.130829,182.899368 189.094925,210.691452 205.356781,239.001907 
	C191.785828,239.001907 178.995529,239.171097 166.220367,238.807999 
	C164.433884,238.757233 162.168747,236.424332 161.065857,234.584076 
	C154.509750,223.644836 148.232895,212.538269 141.848892,201.495636 
	C141.606583,201.076523 141.227432,200.736511 140.469803,199.831192 
	C136.134354,207.227859 131.923737,214.371323 127.754150,221.538651 
	C124.756165,226.692017 121.933853,231.953735 118.748451,236.986938 
	C118.070038,238.058899 116.165695,238.901382 114.815506,238.916779 
	C102.168846,239.061218 89.519859,239.002457 76.048141,239.002457 
	C79.904930,232.184906 83.464233,225.792404 87.118195,219.454483 
	C95.623070,204.702530 104.187256,189.984787 112.699249,175.236923 
	C116.426193,168.779602 120.084206,162.282501 124.171181,155.309753 
	C130.003860,145.650589 135.438858,136.485092 141.022568,127.620079 
	C146.503098,136.982803 151.834915,146.045044 157.166748,155.107285 
z"/>
<path fill="#FE7300" opacity="1.000000" stroke="none" 
	d="
M140.873856,127.319595 
	C135.438858,136.485092 130.003860,145.650589 124.252243,154.979675 
	C92.131737,155.143280 60.327854,155.143280 27.436623,155.143280 
	C31.984325,147.131516 36.094097,139.822189 40.275513,132.554092 
	C42.343178,128.960083 44.835709,125.579079 46.583797,121.843307 
	C47.827778,119.184830 49.535233,118.784508 52.075001,118.799919 
	C65.839470,118.883408 79.604721,118.839523 94.130539,118.839523 
	C90.205048,111.885117 86.694572,105.561584 83.082291,99.296753 
	C79.692703,93.418144 76.072182,87.668480 72.839035,81.707092 
	C72.102150,80.348404 71.847382,77.966415 72.546707,76.709969 
	C78.676468,65.696960 85.070152,54.830772 91.409828,43.935162 
	C91.544617,43.703506 91.968391,43.640003 92.457199,43.399895 
	C108.423897,70.906738 124.391167,98.414551 140.650574,126.348495 
	C140.919754,126.956284 140.896805,127.137939 140.873856,127.319595 
z"/>
<path fill="#FE7300" opacity="1.000000" stroke="none" 
	d="
M141.022568,127.620079 
	C140.896805,127.137939 140.919754,126.956284 140.973022,126.501656 
	C156.840103,98.806892 172.676910,71.385094 189.011673,43.101051 
	C191.296661,46.706097 193.354645,49.758911 195.215759,52.927361 
	C199.917816,60.932339 204.639328,68.930847 209.057831,77.091782 
	C209.683167,78.246735 209.096954,80.543007 208.330673,81.889389 
	C202.093811,92.848022 195.665710,103.697647 189.343994,114.608376 
	C188.715317,115.693382 188.407730,116.964439 187.685120,118.839294 
	C198.889694,118.839294 209.566528,119.686699 220.042633,118.599617 
	C230.402100,117.524635 236.144424,121.121986 240.004822,130.590988 
	C242.793472,137.431168 247.423599,143.516876 251.182327,149.968262 
	C251.986374,151.348297 252.574203,152.854294 253.615967,155.048630 
	C221.226852,155.048630 189.653809,155.048630 157.623749,155.077957 
	C151.834915,146.045044 146.503098,136.982803 141.022568,127.620079 
z"/>
</svg>