<svg version="1.1" id="Layer_1" xmlns="http://www.w3.org/2000/svg" xmlns:xlink="http://www.w3.org/1999/xlink" x="0px" y="0px"
	 width="100%" viewBox="0 0 789 125" enable-background="new 0 0 789 125" xml:space="preserve">
<path fill="#E86D20" opacity="1.000000" stroke="none" 
	d="
M1.241049,105.262253 
	C1.000000,77.645775 1.000000,50.291542 1.000000,22.468658 
	C4.887217,12.230214 11.206575,4.887250 21.736351,1.241209 
	C271.020905,1.000000 520.041809,1.000000 769.531372,1.000000 
	C779.010803,4.984834 786.030396,10.963965 789.757202,20.742115 
	C790.000000,49.020893 790.000000,77.041786 790.000000,105.531342 
	C785.493347,114.942711 779.139526,121.946243 769.256836,125.757385 
	C520.312439,126.000000 271.624878,126.000000 22.468658,126.000000 
	C16.122623,123.643288 11.102023,120.113358 6.972962,115.278458 
	C4.490114,112.371193 2.464508,109.253677 1.241049,105.262253 
z"/>
<path fill="#000000" opacity="1.000000" stroke="none" 
	d="
M1.000000,105.468910 
	C1.359766,104.694984 1.907396,104.250900 2.149699,104.857170 
	C5.982130,114.446236 13.080204,120.742516 22.259462,124.974693 
	C22.390316,125.035019 22.456730,125.235123 22.276608,125.684998 
	C15.733482,126.000000 9.464718,125.906136 3.201791,126.056084 
	C1.274548,126.102219 0.917236,125.545822 0.954136,123.746986 
	C1.075866,117.812782 1.000000,111.874519 1.000000,105.468910 
z"/>
<path fill="#000000" opacity="1.000000" stroke="none" 
	d="
M769.468872,126.000000 
	C768.224854,125.411308 768.596069,124.721077 769.160583,124.506943 
	C778.552979,120.944702 784.328186,113.570381 789.698669,105.718567 
	C790.000000,111.935143 789.899902,117.872932 790.057068,123.803909 
	C790.108459,125.744675 789.527710,126.080353 787.742310,126.044746 
	C781.809570,125.926399 775.872925,126.000000 769.468872,126.000000 
z"/>
<path fill="#000000" opacity="1.000000" stroke="none" 
	d="
M21.531088,1.000000 
	C23.000072,1.967339 21.992136,2.612374 21.436102,2.806420 
	C11.983000,6.105393 6.076685,12.885036 2.410379,21.925406 
	C2.303920,22.187912 1.909978,22.333830 1.325039,22.267056 
	C1.000000,15.733483 1.093861,9.464720 0.943908,3.201792 
	C0.897763,1.274549 1.454178,0.917237 3.253017,0.954136 
	C9.187220,1.075866 15.125476,1.000000 21.531088,1.000000 
z"/>
<path fill="#000000" opacity="1.000000" stroke="none" 
	d="
M790.000000,20.530956 
	C788.340637,21.928144 788.261780,20.494469 787.848450,19.560314 
	C784.391418,11.747156 778.757202,6.172678 770.831482,2.914745 
	C770.281128,2.688494 769.898560,2.054112 769.718994,1.304750 
	C775.933472,1.000000 781.869385,1.097639 787.798889,0.943996 
	C789.724792,0.894095 790.086243,1.452200 790.045898,3.251484 
	C789.920532,8.852498 790.000000,14.458096 790.000000,20.530956 
z"/>
<path fill="#FEFDFC" opacity="1.000000" stroke="none" 
	d="
M30.819374,118.329468 
	C17.224239,116.015778 8.575072,106.307716 8.263732,92.075684 
	C7.859456,73.595421 7.717050,55.086246 8.280897,36.614521 
	C8.842298,18.222948 19.984011,8.161481 38.501690,8.157272 
	C115.289688,8.139819 192.077698,8.138354 268.865692,8.158029 
	C288.230408,8.162991 298.573944,18.483543 298.574738,37.662666 
	C298.575439,55.318909 298.580902,72.975151 298.573151,90.631393 
	C298.565826,107.297310 288.695984,117.799721 272.074158,118.818115 
	C270.580292,118.909645 269.076752,118.849205 267.577698,118.849228 
	C191.455963,118.850204 115.334244,118.854462 39.212521,118.831841 
	C36.555996,118.831047 33.899551,118.561241 30.819374,118.329468 
z"/>
<path fill="#FEFAF8" opacity="1.000000" stroke="none" 
	d="
M576.194336,98.132004 
	C571.795532,94.635651 568.859619,84.874161 571.011169,80.284546 
	C572.459106,77.195755 575.733154,79.304237 578.144165,78.868118 
	C579.925537,78.545876 580.943054,79.356133 580.877991,81.374123 
	C580.802856,83.701027 580.867676,86.036552 580.971313,88.363899 
	C581.062317,90.408081 581.887512,91.830757 584.228577,91.989967 
	C586.669861,92.155991 587.874023,91.137527 588.316650,88.716507 
	C589.434937,82.599678 589.156433,76.800888 585.249329,71.595451 
	C581.653137,66.804092 577.968872,62.069710 574.579041,57.134644 
	C569.582336,49.860310 569.985474,41.979645 573.238892,34.298615 
	C575.335938,29.347660 581.734741,27.421465 589.013611,28.658342 
	C594.714844,29.627136 598.348755,33.184807 599.218933,38.693367 
	C599.400208,39.840565 599.667175,41.025742 599.548645,42.157150 
	C599.353638,44.017872 600.671204,46.803848 598.422058,47.512489 
	C596.011108,48.272106 593.162354,47.828598 590.529053,47.612400 
	C589.327759,47.513763 589.451172,46.122086 589.422241,45.154789 
	C589.367615,43.324501 589.473083,41.484692 589.330322,39.663086 
	C589.181702,37.768341 588.746948,35.996140 586.252319,35.890179 
	C583.705566,35.782009 582.575073,37.312275 582.266602,39.473911 
	C581.495850,44.874897 581.850342,50.028793 585.384949,54.643997 
	C588.923584,59.264507 592.223572,64.070099 595.565918,68.838158 
	C600.639343,76.075653 599.889893,84.044197 597.689392,91.827591 
	C596.175110,97.183479 590.292114,99.984779 583.392639,99.523163 
	C581.097229,99.369583 578.835693,98.709190 576.194336,98.132004 
z"/>
<path fill="#FEF8F4" opacity="1.000000" stroke="none" 
	d="
M371.664398,50.098755 
	C373.071045,51.045120 374.116150,51.844261 375.978729,53.268513 
	C375.978729,46.276180 376.154572,39.915535 375.905762,33.571548 
	C375.778229,30.320541 376.708130,29.247274 380.038086,29.284210 
	C383.347778,29.320921 384.719696,30.040615 384.688324,33.716938 
	C384.520477,53.378456 384.612579,73.042168 384.607300,92.705116 
	C384.605927,97.885384 380.924805,100.428879 376.486023,97.659348 
	C374.780487,96.595169 374.349091,96.750893 372.995178,97.531853 
	C365.230347,102.010689 359.336884,99.007408 359.026062,90.017929 
	C358.663574,79.534859 358.712433,69.024193 358.993866,58.536533 
	C359.212097,50.406277 363.261932,47.800568 371.664398,50.098755 
z"/>
<path fill="#FEF9F6" opacity="1.000000" stroke="none" 
	d="
M426.982483,68.000961 
	C426.982513,63.334663 426.868774,59.163395 427.038971,55.003746 
	C427.106293,53.358562 425.903717,50.744804 428.148163,50.244179 
	C430.545746,49.709396 433.977631,48.709457 435.570740,50.953960 
	C436.972412,52.928734 437.185394,51.905674 438.249146,51.165283 
	C445.460754,46.145893 452.344269,48.949265 452.682831,57.567806 
	C453.173096,70.048256 452.848846,82.560928 452.859772,95.059860 
	C452.863708,99.543350 449.415985,97.457535 447.365601,97.823486 
	C444.931702,98.257881 443.282837,97.731316 443.342377,94.528969 
	C443.509674,85.532219 443.420319,76.530212 443.384766,67.530472 
	C443.374908,65.034523 443.226562,62.537773 443.092041,60.044071 
	C442.977997,57.930691 442.597656,55.970940 439.845551,55.908390 
	C437.068512,55.845276 436.692596,57.972702 436.362701,59.942448 
	C436.117523,61.406574 436.189850,62.930389 436.187927,64.427704 
	C436.175110,74.427559 436.023590,84.431046 436.254242,94.425575 
	C436.351013,98.617867 433.745056,97.822632 431.341064,97.870529 
	C428.973358,97.917702 426.784332,98.305634 426.900452,94.497665 
	C427.164520,85.839211 426.982971,77.167160 426.982483,68.000961 
z"/>
<path fill="#FEFBF8" opacity="1.000000" stroke="none" 
	d="
M618.028137,91.195984 
	C621.836975,94.814445 623.363831,94.366440 624.243896,89.796959 
	C624.432068,88.819984 624.745056,87.803345 624.640625,86.844193 
	C624.029968,81.236870 628.021973,82.509789 631.124634,82.409752 
	C635.652771,82.263763 633.948547,85.731499 633.926880,87.738121 
	C633.840210,95.772522 629.922424,99.604233 621.962036,99.883736 
	C612.902649,100.201836 608.653809,97.090927 608.220886,88.637650 
	C607.754028,79.520805 607.755737,70.342430 608.228333,61.225910 
	C608.671143,52.684212 613.129944,49.531334 622.510376,50.003792 
	C630.703308,50.416443 633.854431,53.821724 634.011108,62.432762 
	C634.014160,62.598969 634.015442,62.765327 634.012146,62.931507 
	C633.922913,67.400131 635.430237,73.006439 633.288391,76.013268 
	C631.199402,78.945839 625.248108,76.857887 621.003296,76.941559 
	C618.461487,76.991661 617.373474,77.678581 617.563049,80.331207 
	C617.811340,83.804878 617.821045,87.295601 618.028137,91.195984 
z"/>
<path fill="#FEFAF8" opacity="1.000000" stroke="none" 
	d="
M708.213135,77.025299 
	C706.532898,77.025642 705.881653,77.592117 705.894348,78.824333 
	C705.931885,82.483932 705.898560,86.146637 706.047852,89.801788 
	C706.129700,91.802643 707.134766,93.403328 709.295349,93.599266 
	C711.746704,93.821564 712.188354,91.825508 712.635193,90.032570 
	C712.834656,89.232239 712.896179,88.391045 712.956970,87.563744 
	C713.302917,82.851021 716.032959,81.060661 720.550171,82.449074 
	C721.749084,82.817574 722.161377,83.475533 722.150452,84.565857 
	C722.122253,87.381210 722.413879,90.210899 721.398804,92.958549 
	C719.487915,98.131119 715.086670,100.335495 707.408691,99.860573 
	C701.306152,99.483116 697.898865,97.166977 697.086121,91.692947 
	C695.442627,80.623680 695.400146,69.450081 697.082947,58.389500 
	C698.098755,51.713120 702.952148,49.255737 711.739563,50.056656 
	C718.639465,50.685539 721.872559,53.803383 722.113403,60.348427 
	C722.272461,64.670227 722.030762,69.007935 722.226440,73.326820 
	C722.349365,76.041550 721.643494,77.277824 718.674133,77.067642 
	C715.362000,76.833199 712.020325,77.016121 708.213135,77.025299 
z"/>
<path fill="#FEFBF9" opacity="1.000000" stroke="none" 
	d="
M416.706726,82.428955 
	C420.915588,86.094254 418.836731,95.505829 413.639557,98.290550 
	C403.319702,103.820061 393.293457,98.207481 393.029938,86.606293 
	C392.848724,78.626236 392.847260,70.633965 393.074066,62.655930 
	C393.203247,58.112240 393.919708,53.324814 398.792755,51.316395 
	C404.243530,49.069862 409.858643,49.256474 415.134399,52.258854 
	C416.655487,53.124485 417.480255,54.634846 417.878052,56.278568 
	C418.345215,58.208900 418.858551,60.181351 418.912811,62.147640 
	C419.041138,66.798264 420.558167,72.527542 418.423370,75.812248 
	C416.250092,79.156227 410.139618,76.755867 405.773376,76.912727 
	C402.965302,77.013618 401.843445,77.767113 402.147797,80.615547 
	C402.500183,83.913712 402.617523,87.236298 402.900330,90.542862 
	C403.065125,92.469391 404.242889,93.662254 406.123993,93.682930 
	C408.147186,93.705177 408.926758,92.217720 409.144196,90.387161 
	C409.203003,89.892113 409.416077,89.376869 409.335083,88.909599 
	C408.344147,83.193596 411.056427,81.476677 416.706726,82.428955 
z"/>
<path fill="#FEFAF7" opacity="1.000000" stroke="none" 
	d="
M533.886169,57.111549 
	C534.887146,64.297714 535.846619,71.048859 536.830872,77.796394 
	C536.918396,78.396500 537.166992,78.973129 537.698608,80.770409 
	C539.125183,70.862450 540.633484,62.191135 541.531738,53.457092 
	C542.052856,48.390049 545.484497,50.017292 548.026611,50.080605 
	C551.838928,50.175556 549.691528,52.984833 549.401611,54.455650 
	C545.639771,73.536812 541.741028,92.590965 537.876465,111.651871 
	C537.093689,115.512909 533.952820,117.186089 530.265320,115.817894 
	C529.292480,115.456917 528.975281,114.936607 529.096191,114.005135 
	C529.138916,113.675438 529.145752,113.325462 529.266479,113.023735 
	C535.952087,96.309914 529.087097,80.354561 526.506409,64.168022 
	C525.930847,60.557903 524.994507,57.006279 524.369934,53.402473 
	C524.156311,52.170544 522.960938,49.891018 525.568298,50.139175 
	C528.046204,50.375019 531.371338,48.056812 532.954407,51.779392 
	C533.587891,53.269199 533.571838,55.035248 533.886169,57.111549 
z"/>
<path fill="#FDF1EA" opacity="1.000000" stroke="none" 
	d="
M339.342712,81.995239 
	C339.342804,65.524178 339.497345,49.549446 339.241272,33.581299 
	C339.171356,29.221785 341.337006,29.225367 344.446106,29.295952 
	C347.386505,29.362709 349.809235,28.961308 349.757965,33.470921 
	C349.527039,53.766365 349.542267,74.067101 349.751801,94.363007 
	C349.794861,98.534294 347.667145,98.491112 344.803650,98.311180 
	C342.177124,98.146149 338.863586,99.356056 339.275269,94.467529 
	C339.609192,90.502602 339.342743,86.487106 339.342712,81.995239 
z"/>
<path fill="#FEF9F6" opacity="1.000000" stroke="none" 
	d="
M665.210449,56.883636 
	C665.082336,55.965130 664.853638,55.405262 665.006165,54.983059 
	C665.606995,53.319500 661.926697,50.048618 666.788025,50.002277 
	C670.091614,49.970787 673.618286,48.874737 673.958252,54.568615 
	C674.591309,65.172714 676.007446,75.730064 677.819946,86.341637 
	C679.210266,75.594955 680.616211,64.850258 681.981750,54.100430 
	C682.419128,50.657814 686.988586,48.339775 689.874084,50.124996 
	C691.077820,50.869732 690.447693,51.869442 690.310852,52.759331 
	C688.162415,66.729225 685.975769,80.693253 683.831604,94.663803 
	C683.519165,96.699715 682.843933,97.797379 680.404663,97.941505 
	C672.182678,98.427284 672.247620,98.541870 670.881836,90.259338 
	C669.069092,79.266006 667.155396,68.289352 665.210449,56.883636 
z"/>
<path fill="#FEF6F1" opacity="1.000000" stroke="none" 
	d="
M519.351868,92.692116 
	C519.013611,95.138908 521.369690,98.259628 517.161011,98.966393 
	C511.438416,99.927399 506.765320,98.486633 505.419220,94.879707 
	C504.430511,92.230408 504.083191,89.414467 504.100037,86.550270 
	C504.147919,78.400566 504.166046,70.249916 504.085815,62.100723 
	C504.062347,59.715118 505.164062,57.001698 500.949066,56.113480 
	C499.235138,55.752308 498.952576,51.442486 501.373718,50.702042 
	C504.126160,49.860275 504.508423,48.453537 504.059113,46.479019 
	C502.713226,40.564369 507.054077,39.731602 510.929321,38.330791 
	C513.020752,37.574799 513.656555,38.441551 513.624146,40.388245 
	C513.590881,42.383522 513.711853,44.384701 513.603943,46.374535 
	C513.479065,48.676159 513.840088,50.365955 516.748596,49.985538 
	C518.996277,49.691555 519.100281,51.188274 519.029724,52.816315 
	C518.960388,54.414963 519.465393,56.434326 516.756104,56.172615 
	C513.828918,55.889862 513.586853,57.635979 513.603271,59.900318 
	C513.664795,68.382507 513.720703,76.866753 513.592529,85.347420 
	C513.531677,89.379219 514.718262,92.076736 519.351868,92.692116 
z"/>
<path fill="#FFFDFB" opacity="1.000000" stroke="none" 
	d="
M458.873566,52.213875 
	C462.448151,50.338993 463.659943,47.843597 463.085480,43.997982 
	C462.709442,41.480854 468.767853,37.395390 471.185577,38.130276 
	C472.313751,38.473179 472.119690,39.359943 472.139252,40.112595 
	C472.195435,42.272621 472.230499,44.437294 472.150604,46.595581 
	C472.075287,48.630230 472.230194,50.324322 474.962311,49.997356 
	C477.041473,49.748535 477.957336,50.554474 477.901825,52.790043 
	C477.850067,54.875095 477.672028,56.465405 475.007172,56.176357 
	C472.328491,55.885818 472.138489,57.586121 472.150543,59.635509 
	C472.201477,68.280807 472.060120,76.929169 472.250549,85.570641 
	C472.312866,88.396965 472.121552,91.653023 476.665100,91.994568 
	C479.360779,92.197189 477.843781,94.923256 478.113068,96.508469 
	C478.392487,98.153366 477.359833,98.682640 475.787689,98.965683 
	C467.525513,100.453194 463.260162,97.279953 463.062225,88.863365 
	C462.843384,79.557755 463.011993,70.243279 462.983917,60.932747 
	C462.977783,58.897247 463.697113,56.598576 460.182556,56.368748 
	C458.093658,56.232159 459.081329,53.994907 458.873566,52.213875 
z"/>
<path fill="#FDF3EC" opacity="1.000000" stroke="none" 
	d="
M730.354370,65.005768 
	C730.354431,61.511356 730.350098,58.515751 730.354980,55.520157 
	C730.364136,49.931164 732.298340,47.940285 737.405884,50.292400 
	C740.490967,51.713120 742.139221,50.546452 744.403015,49.846706 
	C746.116089,49.317200 748.463135,48.092232 748.656006,50.928463 
	C748.792847,52.940804 751.015076,56.555290 746.359985,57.084751 
	C741.074890,57.685875 739.626465,61.196289 739.640442,65.884995 
	C739.668579,75.370979 739.438477,84.863747 739.741150,94.340111 
	C739.874268,98.508408 737.680176,98.333176 734.809998,98.343491 
	C732.011047,98.353546 730.156982,98.248337 730.264099,94.459496 
	C730.536621,84.814705 730.354431,75.157074 730.354370,65.005768 
z"/>
<path fill="#FEFBF8" opacity="1.000000" stroke="none" 
	d="
M642.137817,73.000031 
	C642.137878,66.682701 642.131104,60.865356 642.140076,55.048038 
	C642.147034,50.493954 647.012024,47.319977 649.976318,50.460648 
	C652.246216,52.865585 652.790405,51.313927 654.262634,50.659317 
	C655.901306,49.930668 657.763855,48.458153 659.371704,49.527195 
	C661.017334,50.621357 659.949463,52.919060 660.167664,54.676563 
	C660.497864,57.336327 658.429382,56.867218 656.920715,57.224991 
	C652.302979,58.320057 651.162354,61.854870 651.119202,65.943405 
	C651.020874,75.249428 650.875916,84.560646 651.097900,93.861450 
	C651.182007,97.383919 650.131897,98.365578 646.661377,98.292381 
	C643.402161,98.223618 641.894043,97.656609 642.054504,93.940186 
	C642.348145,87.138275 642.137939,80.314606 642.137817,73.000031 
z"/>
<path fill="#FDF4ED" opacity="1.000000" stroke="none" 
	d="
M485.506897,97.703568 
	C484.187988,96.605888 484.368103,95.399368 484.367249,94.252571 
	C484.356873,80.764984 484.524841,67.274223 484.264557,53.791653 
	C484.181519,49.490456 486.550598,49.903900 489.292572,49.940567 
	C491.837860,49.974598 494.072540,49.510765 493.992126,53.596539 
	C493.726715,67.078903 493.863159,80.569839 493.904419,94.057304 
	C493.925964,101.096436 488.612915,96.642159 485.506897,97.703568 
z"/>
<path fill="#FCEFE6" opacity="1.000000" stroke="none" 
	d="
M486.392517,29.352612 
	C489.729370,29.989981 494.883270,27.013388 494.023804,33.725910 
	C493.814819,35.357918 495.147736,37.897465 492.757416,38.403992 
	C490.273376,38.930370 487.455292,38.832573 484.992554,38.196949 
	C483.123413,37.714527 483.903717,31.460032 486.392517,29.352612 
z"/>
<path fill="#F38028" opacity="1.000000" stroke="none" 
	d="
M79.208160,51.182877 
	C82.827576,42.078354 86.302956,33.332767 90.184586,23.564878 
	C96.234459,39.929726 101.879601,55.199783 108.075775,71.960381 
	C111.784348,62.670456 114.898376,54.890060 117.995979,47.103127 
	C119.961739,42.161491 122.407921,37.339680 123.719551,32.228283 
	C125.156204,26.629677 128.515411,26.408655 133.591919,27.425491 
	C125.219704,48.455605 116.948936,69.230881 108.122345,91.402328 
	C101.817047,74.769936 95.981117,59.375656 89.734100,42.896996 
	C83.167091,59.525356 77.040237,75.039177 70.561279,91.444572 
	C62.552536,69.559891 54.874619,48.579227 47.172752,27.533106 
	C54.641315,26.360706 54.640186,26.361109 56.997219,32.968830 
	C61.016663,44.236954 65.014763,55.512814 69.088661,66.761215 
	C69.566925,68.081734 69.639107,69.677078 71.434303,70.982872 
	C74.032394,64.362846 76.548264,57.952332 79.208160,51.182877 
z"/>
<path fill="#090807" opacity="1.000000" stroke="none" 
	d="
M187.164810,88.971207 
	C171.427719,80.627281 164.618576,66.765640 167.895447,50.346630 
	C170.869125,35.446709 182.726593,24.622822 197.756302,23.088678 
	C212.593826,21.574150 225.996765,28.500355 232.775696,41.185524 
	C239.011108,52.853680 237.451370,68.813515 229.058777,79.218300 
	C220.130661,90.287018 205.343979,94.700882 191.257492,90.477142 
	C189.989563,90.096954 188.767715,89.563004 187.164810,88.971207 
z"/>
<path fill="#F4812A" opacity="1.000000" stroke="none" 
	d="
M151.797363,83.097794 
	C157.039932,80.997971 159.116028,77.288185 159.445786,72.109459 
	C159.773376,66.965042 156.506439,64.643013 152.794037,62.548668 
	C148.450745,60.098427 143.911697,57.977261 139.672409,55.364735 
	C133.141846,51.340191 130.888107,45.979359 132.495422,39.355888 
	C134.047699,32.959293 139.681702,28.179838 146.826920,27.198183 
	C153.353607,26.301504 160.843719,29.755770 163.699768,34.745197 
	C164.702911,36.497612 164.321198,37.409798 162.745239,38.330444 
	C160.896744,39.410290 159.153732,41.124535 157.266754,38.387878 
	C154.753159,34.742451 151.284958,33.276703 146.897552,33.928085 
	C143.151016,34.484314 140.145096,36.196304 139.132675,39.981991 
	C138.103668,43.829700 138.944717,47.288670 142.816895,49.348728 
	C146.922745,51.533115 150.994370,53.794811 155.187592,55.799717 
	C172.040558,63.857628 168.546494,80.639938 159.363831,87.281746 
	C149.323685,94.543793 134.436340,90.265236 129.877029,78.571037 
	C129.185043,76.796135 127.745224,74.805145 131.005005,73.857491 
	C133.372940,73.169098 135.339279,71.926659 136.810349,75.615250 
	C139.688583,82.832184 143.869370,84.735863 151.797363,83.097794 
z"/>
<path fill="#0C0C0C" opacity="1.000000" stroke="none" 
	d="
M242.331558,101.137070 
	C247.287338,101.137146 251.783981,101.110931 256.280029,101.151657 
	C257.837189,101.165756 259.735138,100.588051 259.302673,103.567513 
	C259.003082,105.631409 259.327026,107.178185 256.249451,107.105820 
	C246.432053,106.874939 236.605789,107.020218 225.785095,107.020218 
	C228.699219,103.733521 231.108444,100.970345 233.567459,98.252243 
	C239.035797,92.207809 244.662720,86.300751 249.971573,80.120018 
	C254.556137,74.782539 255.408218,69.774353 252.699005,65.567390 
	C249.345367,60.359730 244.363235,59.441631 238.631714,60.855534 
	C236.896622,56.516941 238.985229,55.176193 242.888504,54.968895 
	C254.667419,54.343342 262.463379,65.950012 257.564911,76.946655 
	C255.354614,81.908569 251.410706,85.585182 247.864319,89.529259 
	C244.643845,93.110863 241.252396,96.538704 237.867233,100.107170 
	C238.947052,101.867981 240.592438,100.807388 242.331558,101.137070 
z"/>
<path fill="#E86F22" opacity="1.000000" stroke="none" 
	d="
M367.867615,73.007477 
	C367.971924,68.198265 367.877075,63.868103 368.266388,59.581917 
	C368.455200,57.503128 369.306793,55.098034 372.238129,55.497368 
	C374.768860,55.842133 375.160400,57.998714 375.156494,60.051598 
	C375.139496,69.014183 375.101715,77.978096 374.908997,86.938034 
	C374.859772,89.226265 374.584808,91.868408 371.326721,91.936668 
	C367.806763,92.010406 368.079132,89.143326 367.986145,86.956276 
	C367.795776,82.478806 367.890381,77.989220 367.867615,73.007477 
z"/>
<path fill="#EA7932" opacity="1.000000" stroke="none" 
	d="
M617.871826,70.149551 
	C617.256226,65.816643 617.088867,61.851406 617.840088,57.899334 
	C618.192322,56.046692 619.070740,54.883781 621.167664,54.985764 
	C622.996948,55.074722 623.832764,56.110867 624.088318,57.774879 
	C624.415039,59.902981 624.864929,62.026913 624.990234,64.168541 
	C625.410889,71.352745 625.362122,71.357742 617.871826,70.149551 
z"/>
<path fill="#E9762C" opacity="1.000000" stroke="none" 
	d="
M707.153931,70.748222 
	C704.880920,66.540039 705.986267,62.244984 706.123413,58.026047 
	C706.181030,56.254005 707.302551,54.982334 709.384094,54.996986 
	C711.223877,55.009933 712.120361,56.101448 712.443420,57.687256 
	C712.905396,59.955311 713.327393,62.245010 713.546631,64.546402 
	C714.127991,70.650871 713.882080,70.864433 707.153931,70.748222 
z"/>
<path fill="#EA772F" opacity="1.000000" stroke="none" 
	d="
M409.487183,70.381714 
	C401.870239,71.095833 401.653168,71.078560 402.236725,63.744736 
	C402.483002,60.649742 401.005188,55.505421 405.722412,55.260235 
	C411.250702,54.972885 408.993683,60.619118 409.880127,63.676830 
	C410.447815,65.635109 409.871429,67.925049 409.487183,70.381714 
z"/>
<path fill="#F17B22" opacity="1.000000" stroke="none" 
	d="
M228.656479,59.554916 
	C228.452591,73.648323 218.642975,83.947212 204.165451,85.812073 
	C191.820145,87.402275 178.921661,79.105766 175.075684,67.094032 
	C174.772705,66.147751 174.517441,65.186180 174.258163,63.843220 
	C178.447098,61.778893 182.818863,62.588058 187.067123,62.692310 
	C191.417328,62.799065 193.951172,61.120136 195.259445,57.091057 
	C196.079391,54.565903 197.301254,52.189476 198.419739,49.783180 
	C199.157608,48.195667 199.556458,45.887516 201.828262,46.064358 
	C203.866211,46.222996 204.562408,48.285793 205.269455,49.967751 
	C207.263168,54.710541 209.081482,59.524868 211.038452,64.282677 
	C211.851547,66.259491 212.410477,68.369553 214.150574,70.465019 
	C216.249756,68.440758 216.981339,65.679482 218.394791,63.412395 
	C220.782349,59.582901 223.798477,57.636246 228.656479,59.554916 
z"/>
<path fill="#F17B22" opacity="1.000000" stroke="none" 
	d="
M174.407669,59.592094 
	C172.050079,46.913036 182.595856,32.020004 198.024948,30.127670 
	C213.424973,28.238901 226.080002,38.386589 228.859695,54.914322 
	C227.721558,56.282951 226.364975,56.387608 225.044708,56.371105 
	C221.882065,56.331577 219.863098,57.797878 218.206573,60.483204 
	C215.628906,64.661713 213.748779,64.535973 211.809387,60.090141 
	C209.416290,54.604202 207.083862,49.086937 204.865921,43.523693 
	C204.202957,41.860790 203.887650,39.983143 202.155716,38.489033 
	C199.500732,42.198326 197.900833,46.334644 196.171448,50.382515 
	C191.878387,60.430912 191.910889,60.460152 181.134476,60.397358 
	C178.988907,60.384861 176.798035,60.681599 174.407669,59.592094 
z"/>
<path fill="#FDF2EA" opacity="1.000000" stroke="none" 
	d="
M174.060760,59.737595 
	C178.069504,59.297375 182.081024,58.866985 186.029846,59.193886 
	C189.866776,59.511524 191.620056,57.960762 192.989090,54.567646 
	C195.645279,47.984375 198.749680,41.581947 202.220413,33.879429 
	C206.562424,44.299797 210.454620,53.640648 214.843994,64.174713 
	C217.250061,57.385677 221.091202,53.690762 228.371628,55.327560 
	C229.921951,56.528065 230.297073,57.833801 229.140503,59.563820 
	C223.645309,58.442200 220.567169,60.762539 218.631271,65.596977 
	C217.539734,68.322792 215.841476,70.805656 213.919571,74.302040 
	C209.793243,64.363625 205.985657,55.192951 201.815750,45.149567 
	C199.315857,50.806423 197.113083,55.414913 195.251038,60.157196 
	C194.265366,62.667484 192.980820,63.856464 190.143326,63.720078 
	C185.165314,63.480804 180.170242,63.596302 174.729324,63.508957 
	C174.196259,62.329411 174.116196,61.204102 174.060760,59.737595 
z"/>
</svg>